<?xml version="1.0" encoding="UTF-8"?>
<svg id="Layer_1" data-name="Layer 1" xmlns="http://www.w3.org/2000/svg" viewBox="0 0 509.93 258.96">
  <defs>
    <style>
      .cls-1 {
        fill: #0023f4;
        stroke-width: 0px;
      }
    </style>
  </defs>
  <g>
    <path class="cls-1" d="M16.52,243.21v2.73h-7.34v3.36h6.91v2.75h-6.91v3.79h7.8l-.33,2.73H5.94v-15.36h10.58Z"/>
    <path class="cls-1" d="M23.45,243.21l6.39,10.07v-10.07h3.15v15.36h-2.89l-6.41-9.98v9.98h-3.15v-15.36h2.91Z"/>
    <path class="cls-1" d="M50.52,250.16v6.5c-.8.73-1.75,1.3-2.85,1.7-1.1.4-2.24.6-3.41.6-1.23,0-2.31-.19-3.23-.58-.92-.39-1.68-.93-2.29-1.64-.61-.7-1.06-1.55-1.37-2.55-.3-1-.46-2.1-.46-3.3s.17-2.37.5-3.36.81-1.84,1.42-2.54c.62-.7,1.37-1.24,2.25-1.61s1.87-.56,2.96-.56c1,0,1.86.12,2.57.37.72.24,1.33.58,1.83,1.01.5.43.9.93,1.2,1.51.3.57.51,1.19.64,1.85l-3.22.41c-.09-.39-.19-.73-.32-1.02s-.3-.54-.53-.75-.52-.37-.87-.47-.78-.16-1.3-.16c-1.26,0-2.2.47-2.82,1.4s-.93,2.25-.93,3.94.32,3.02.95,3.95c.63.92,1.65,1.39,3.07,1.39.68,0,1.27-.07,1.77-.21.5-.14.98-.35,1.44-.63v-2.56h-2.96v-2.67h5.95Z"/>
    <path class="cls-1" d="M57.69,243.21v15.36h-3.24v-15.36h3.24Z"/>
    <path class="cls-1" d="M65.04,243.21l6.39,10.07v-10.07h3.15v15.36h-2.89l-6.41-9.98v9.98h-3.15v-15.36h2.91Z"/>
    <path class="cls-1" d="M89.59,243.21v2.73h-7.34v3.36h6.91v2.75h-6.91v3.79h7.8l-.33,2.73h-10.71v-15.36h10.58Z"/>
    <path class="cls-1" d="M104.19,243.21v2.73h-7.34v3.36h6.91v2.75h-6.91v3.79h7.8l-.33,2.73h-10.71v-15.36h10.58Z"/>
    <path class="cls-1" d="M113.7,243.21c1.22,0,2.22.14,3.01.42.79.28,1.41.65,1.86,1.1s.76.95.93,1.51c.17.55.26,1.09.26,1.62,0,.99-.18,1.82-.54,2.5s-.97,1.24-1.83,1.7l3.15,6.52h-3.5l-2.61-5.77h-3.04v5.77h-3.19v-15.36h5.5ZM115.18,249.98c.33-.11.6-.26.79-.45s.33-.43.4-.7.11-.57.11-.9c0-.27-.04-.54-.13-.79s-.24-.47-.45-.67c-.21-.19-.5-.34-.87-.45s-.84-.16-1.4-.16h-2.24v4.28h2.52c.51,0,.93-.05,1.26-.16Z"/>
    <path class="cls-1" d="M126.89,243.21v15.36h-3.24v-15.36h3.24Z"/>
    <path class="cls-1" d="M134.23,243.21l6.39,10.07v-10.07h3.15v15.36h-2.89l-6.41-9.98v9.98h-3.15v-15.36h2.91Z"/>
    <path class="cls-1" d="M161.31,250.16v6.5c-.8.73-1.75,1.3-2.85,1.7-1.1.4-2.24.6-3.41.6-1.23,0-2.31-.19-3.23-.58-.92-.39-1.68-.93-2.29-1.64-.61-.7-1.06-1.55-1.37-2.55-.3-1-.46-2.1-.46-3.3s.17-2.37.5-3.36.81-1.84,1.42-2.54c.62-.7,1.37-1.24,2.25-1.61s1.87-.56,2.96-.56c1,0,1.86.12,2.57.37.72.24,1.33.58,1.83,1.01.5.43.9.93,1.2,1.51.3.57.51,1.19.64,1.85l-3.22.41c-.09-.39-.19-.73-.32-1.02s-.3-.54-.53-.75-.52-.37-.87-.47-.78-.16-1.3-.16c-1.26,0-2.2.47-2.82,1.4s-.93,2.25-.93,3.94.32,3.02.95,3.95c.63.92,1.65,1.39,3.07,1.39.68,0,1.27-.07,1.77-.21.5-.14.98-.35,1.44-.63v-2.56h-2.96v-2.67h5.95Z"/>
    <path class="cls-1" d="M169.95,245.99v-2.78h12.6v2.78h-4.67v12.59h-3.26v-12.59h-4.67Z"/>
    <path class="cls-1" d="M189.07,243.21v5.94h6.15v-5.94h3.24v15.36h-3.24v-6.45h-6.15v6.45h-3.24v-15.36h3.24Z"/>
    <path class="cls-1" d="M213.47,243.21v2.73h-7.34v3.36h6.91v2.75h-6.91v3.79h7.8l-.33,2.73h-10.71v-15.36h10.58Z"/>
    <path class="cls-1" d="M225.16,243.21l3.76,10.86,3.87-10.86h3.48l-5.82,15.36h-3.06l-5.82-15.36h3.61Z"/>
    <path class="cls-1" d="M249.91,243.21v2.73h-7.34v3.36h6.91v2.75h-6.91v3.79h7.8l-.33,2.73h-10.71v-15.36h10.58Z"/>
    <path class="cls-1" d="M257.16,243.21v5.94h6.15v-5.94h3.24v15.36h-3.24v-6.45h-6.15v6.45h-3.24v-15.36h3.24Z"/>
    <path class="cls-1" d="M274.22,243.21v15.36h-3.24v-15.36h3.24Z"/>
    <path class="cls-1" d="M291.33,255.53c-.31.7-.74,1.3-1.28,1.81-.54.51-1.21.91-2,1.19s-1.71.43-2.75.43c-1.17,0-2.21-.19-3.1-.58-.89-.39-1.64-.93-2.24-1.64-.6-.7-1.05-1.55-1.36-2.55-.3-1-.46-2.1-.46-3.3s.17-2.37.5-3.36c.33-.99.81-1.84,1.43-2.54.62-.7,1.38-1.24,2.26-1.61s1.88-.56,3-.56c.99,0,1.84.12,2.57.37.73.24,1.35.59,1.85,1.05s.9,1.01,1.21,1.66.53,1.37.67,2.17l-3.22.41c-.16-.9-.47-1.61-.92-2.13s-1.18-.77-2.16-.77c-1.25,0-2.19.46-2.84,1.39s-.97,2.23-.97,3.93.34,3.02,1.03,3.94,1.61,1.38,2.77,1.38c1,0,1.73-.25,2.21-.76.47-.51.76-1.24.88-2.18h3.48c-.07.82-.26,1.57-.58,2.27Z"/>
    <path class="cls-1" d="M298.64,243.21v12.61h7.34l-.35,2.75h-10.23v-15.36h3.24Z"/>
    <path class="cls-1" d="M319.93,243.21v2.73h-7.34v3.36h6.91v2.75h-6.91v3.79h7.8l-.33,2.73h-10.71v-15.36h10.58Z"/>
    <path class="cls-1" d="M333.62,258.4c-.91-.37-1.69-.91-2.32-1.61-.64-.7-1.13-1.55-1.47-2.54-.34-.99-.51-2.11-.51-3.36s.17-2.37.51-3.36.83-1.84,1.48-2.54c.64-.7,1.42-1.24,2.34-1.61s1.94-.56,3.09-.56,2.19.19,3.11.56,1.68.91,2.31,1.61c.63.7,1.11,1.55,1.44,2.54s.5,2.11.5,3.36-.16,2.37-.49,3.36c-.33.99-.8,1.84-1.43,2.54-.63.7-1.4,1.24-2.31,1.61s-1.96.56-3.13.56-2.19-.19-3.11-.56ZM339.74,254.83c.67-.92,1-2.23,1-3.94s-.33-3-1-3.93-1.68-1.39-3.04-1.39-2.38.46-3.04,1.39-1,2.23-1,3.93.33,3.02,1,3.94,1.68,1.38,3.04,1.38,2.38-.46,3.04-1.38Z"/>
    <path class="cls-1" d="M358.21,243.21v2.75h-6.95v3.61h6.54v2.75h-6.54v6.24h-3.24v-15.36h10.19Z"/>
    <path class="cls-1" d="M366.68,245.99v-2.78h12.6v2.78h-4.67v12.59h-3.26v-12.59h-4.67Z"/>
    <path class="cls-1" d="M385.8,243.21v5.94h6.15v-5.94h3.24v15.36h-3.24v-6.45h-6.15v6.45h-3.24v-15.36h3.24Z"/>
    <path class="cls-1" d="M410.2,243.21v2.73h-7.34v3.36h6.91v2.75h-6.91v3.79h7.8l-.33,2.73h-10.71v-15.36h10.58Z"/>
    <path class="cls-1" d="M430.28,243.21v2.75h-6.95v3.61h6.54v2.75h-6.54v6.24h-3.24v-15.36h10.19Z"/>
    <path class="cls-1" d="M436.97,243.21v9.14c0,1.31.23,2.27.7,2.9s1.24.95,2.32.95,1.86-.32,2.31-.95.68-1.6.68-2.9v-9.14h3.24v9.14c0,1.16-.14,2.16-.43,2.99s-.7,1.52-1.24,2.05c-.54.54-1.19.93-1.97,1.18s-1.65.38-2.62.38-1.87-.13-2.64-.39-1.43-.66-1.97-1.19-.94-1.23-1.22-2.08c-.28-.85-.41-1.85-.41-3.01v-9.08h3.24Z"/>
    <path class="cls-1" d="M449.2,245.99v-2.78h12.6v2.78h-4.67v12.59h-3.26v-12.59h-4.67Z"/>
    <path class="cls-1" d="M468.01,243.21v9.14c0,1.31.23,2.27.7,2.9s1.24.95,2.32.95,1.86-.32,2.31-.95.68-1.6.68-2.9v-9.14h3.24v9.14c0,1.16-.14,2.16-.43,2.99s-.7,1.52-1.24,2.05c-.54.54-1.19.93-1.97,1.18s-1.65.38-2.62.38-1.87-.13-2.64-.39-1.43-.66-1.97-1.19-.94-1.23-1.22-2.08c-.28-.85-.41-1.85-.41-3.01v-9.08h3.24Z"/>
    <path class="cls-1" d="M486.89,243.21c1.22,0,2.22.14,3.01.42.79.28,1.41.65,1.86,1.1s.76.95.93,1.51c.17.55.26,1.09.26,1.62,0,.99-.18,1.82-.54,2.5s-.97,1.24-1.83,1.7l3.15,6.52h-3.5l-2.61-5.77h-3.04v5.77h-3.19v-15.36h5.5ZM488.37,249.98c.33-.11.6-.26.79-.45s.33-.43.4-.7.11-.57.11-.9c0-.27-.04-.54-.13-.79s-.24-.47-.45-.67c-.21-.19-.5-.34-.87-.45s-.84-.16-1.4-.16h-2.24v4.28h2.52c.51,0,.93-.05,1.26-.16Z"/>
    <path class="cls-1" d="M507.43,243.21v2.73h-7.34v3.36h6.91v2.75h-6.91v3.79h7.8l-.33,2.73h-10.71v-15.36h10.58Z"/>
  </g>
  <g>
    <path class="cls-1" d="M18.99,50.96c2.16,1.71,5.35,2.57,9.56,2.57,2.02,0,3.72-.21,5.1-.64s2.51-1,3.37-1.71,1.48-1.56,1.86-2.53c.37-.97.56-2.03.56-3.17,0-1.6-.61-3.1-1.82-4.5-1.21-1.4-3.43-2.41-6.66-3.04l-8.04-1.46c-3.17-.57-5.97-1.31-8.39-2.23-2.42-.91-4.45-2.1-6.1-3.55s-2.9-3.24-3.76-5.35c-.87-2.11-1.3-4.62-1.3-7.54s.59-5.48,1.77-7.71c1.18-2.23,2.83-4.08,4.93-5.57,2.1-1.49,4.63-2.61,7.57-3.38,2.94-.77,6.17-1.16,9.69-1.16,4.5,0,8.25.51,11.25,1.54s5.42,2.38,7.27,4.07,3.21,3.64,4.11,5.87c.89,2.23,1.48,4.54,1.77,6.94l-12.2,1.54c-.63-3.37-1.86-5.79-3.68-7.28-1.82-1.48-4.57-2.23-8.26-2.23-2.19,0-3.99.19-5.41.56-1.41.37-2.55.86-3.42,1.46s-1.47,1.3-1.82,2.1c-.35.8-.52,1.63-.52,2.48,0,2.28.65,4,1.95,5.14,1.3,1.14,3.5,2.03,6.62,2.66l8.48,1.63c6.69,1.31,11.59,3.44,14.71,6.38,3.11,2.94,4.67,7.18,4.67,12.72,0,2.68-.5,5.15-1.51,7.41-1.01,2.25-2.51,4.22-4.5,5.91s-4.48,3-7.48,3.94c-3,.94-6.52,1.41-10.55,1.41-8.42,0-14.86-1.78-19.33-5.35-4.47-3.57-6.88-8.95-7.22-16.14h13.06c.29,3.77,1.51,6.51,3.68,8.22Z"/>
    <path class="cls-1" d="M78.12,1.54v22.1c1.79-2.4,3.86-4.17,6.23-5.31,2.36-1.14,4.84-1.71,7.44-1.71,5.13,0,8.94,1.33,11.42,3.98,2.48,2.66,3.72,6.84,3.72,12.55v29.55h-12.11v-27.92c0-3.14-.61-5.28-1.82-6.42-1.21-1.14-2.83-1.71-4.84-1.71-1.56,0-2.9.23-4.02.69-1.12.46-2.18,1.11-3.16,1.97-.81.8-1.48,1.76-2.03,2.87s-.82,2.33-.82,3.64v26.89h-12.11V1.54h12.11Z"/>
    <path class="cls-1" d="M134.6,1.54v10.79h-12.46V1.54h12.46ZM134.43,17.99v44.71h-12.11V17.99h12.11Z"/>
    <path class="cls-1" d="M146.11,27.32v-9.34h7.09v-1.46c0-2.74.4-5.11,1.21-7.11.81-2,1.92-3.63,3.33-4.88,1.41-1.26,3.07-2.18,4.97-2.78s3.98-.9,6.23-.9c1.44,0,2.96.09,4.54.26,1.59.17,3.21.51,4.89,1.03l-1.64,8.74c-1.85-.46-3.6-.69-5.28-.69-1.56,0-2.97.44-4.24,1.33-1.27.89-1.9,2.47-1.9,4.75v1.71h10.47v9.34h-10.47v35.37h-12.11V27.32h-7.09Z"/>
    <path class="cls-1" d="M185.03,27.32v-9.34h7.09V6.08h12.11v11.91h10.38v9.34h-10.38v20.64c0,2.34.49,3.93,1.47,4.75.98.83,2.25,1.24,3.81,1.24.81,0,1.63-.04,2.47-.13.84-.09,1.66-.24,2.47-.47l1.73,8.82c-1.67.51-3.3.87-4.89,1.07-1.59.2-3.1.3-4.54.3-4.96,0-8.64-1.17-11.03-3.51-2.39-2.34-3.59-6.28-3.59-11.82v-20.9h-7.09Z"/>
    <path class="cls-1" d="M233.3,47.49c2.42-1.97,4.87-4.04,7.35-6.21,2.42-2.11,4.54-4.03,6.36-5.74,1.82-1.71,3.33-3.37,4.54-4.97,1.21-1.6,2.12-3.18,2.72-4.75.61-1.57.91-3.3.91-5.18,0-2.46-.71-4.47-2.12-6.04-1.41-1.57-3.33-2.36-5.75-2.36-2.88,0-5.15.64-6.79,1.93-1.64,1.29-2.87,3.73-3.68,7.32l-11.76-1.37c.52-2.46,1.27-4.78,2.25-6.98.98-2.2,2.32-4.14,4.02-5.82,1.7-1.68,3.85-3.01,6.44-3.98,2.6-.97,5.8-1.46,9.6-1.46,6.69,0,11.76,1.63,15.22,4.88,3.46,3.25,5.19,7.68,5.19,13.28,0,2.4-.3,4.61-.91,6.64-.61,2.03-1.51,4.01-2.72,5.95s-2.75,3.9-4.63,5.87-4.11,4.1-6.7,6.38c-1.38,1.14-2.78,2.28-4.2,3.43-1.41,1.14-2.93,2.46-4.54,3.94h24.57l-1.3,10.45h-41.43v-8.99c2.48-2.17,4.93-4.24,7.35-6.21Z"/>
  </g>
  <path class="cls-1" d="M29.38,103.53v60.85c-16.23,0-29.38-13.16-29.38-29.38v-2.09c0-16.23,13.16-29.38,29.38-29.38ZM127.44,164.38c16.12,0,29.18,13.06,29.18,29.17v7.96c0,16.1-13.06,29.17-29.17,29.17H2.81v-24.15h100.5c13.26,0,24.02,10.69,24.14,23.92v-66.08h0ZM127.45,164.38H29.38c0-13.33,10.81-24.15,24.15-24.15h49.77c13.34,0,24.15,10.81,24.15,24.15ZM154.94,103.53H29.39c0-13.33,10.81-24.15,24.14-24.15h101.41v24.15Z"/>
  <path class="cls-1" d="M343.48,137.25v36.19c0,15.51-12.57,28.07-28.06,28.07h-1.03c-.05,16.07-13.18,29.17-29.26,29.17h-100.45V79.38h100.93c15.84,0,28.7,12.86,28.72,28.7,16.1,0,29.15,13.07,29.15,29.17ZM314.31,108.1l-100.45-.03v93.44l100.45-.1v-93.31Z"/>
  <path class="cls-1" d="M509.93,79.18l-16.65,97.91c-2.73,16.08-17.56,29.12-32.63,29.17-.18,1-.51,2.09-.79,3.05-3.43,11.89-14.51,21.09-26.04,21.09h-4.24c-11.53,0-22.61-9.2-26.03-21.09-.29-1-.53-2.02-.7-3.05-15.1,0-29.98-13.07-32.72-29.17l-16.65-97.91h27.76l21.61,127.07,57.73-.09,21.59-126.98h27.76Z"/>
</svg>